<svg xmlns="http://www.w3.org/2000/svg" viewBox="0 0 640 400">
  <!-- Ilustración provisional para la franja amarilla de cobertura (fondo transparente) -->
  <ellipse cx="330" cy="372" rx="290" ry="16" fill="#1A1A1A" opacity="0.12"/>
  <!-- Ruta punteada hacia la casa del cliente -->
  <path d="M40 360 C140 300 120 200 240 190" fill="none" stroke="#D7182A" stroke-width="5" stroke-dasharray="12 12" stroke-linecap="round"/>
  <!-- Casa del cliente -->
  <g transform="translate(470 150)">
    <path d="M0 80 L70 20 L140 80 V210 H0 Z" fill="#FFFFFF"/>
    <path d="M-10 84 L70 14 L150 84" fill="none" stroke="#D7182A" stroke-width="14" stroke-linejoin="round" stroke-linecap="round"/>
    <rect x="52" y="130" width="38" height="80" rx="4" fill="#9E0F1C"/>
    <rect x="16" y="104" width="26" height="26" rx="3" fill="#FFE58A"/>
  </g>
  <!-- Furgoneta -->
  <g transform="translate(150 200)">
    <path d="M0 30 Q0 0 30 0 H190 Q214 0 226 20 L262 82 Q272 98 272 118 V150 Q272 166 256 166 H16 Q0 166 0 150 Z" fill="#D7182A"/>
    <path d="M198 18 H214 Q220 18 224 24 L250 76 H198 Z" fill="#FFFFFF" opacity="0.9"/>
    <rect x="0" y="108" width="272" height="16" fill="#FFFFFF"/>
    <polygon points="90,30 118,46 118,78 90,94 62,78 62,46" fill="#FFC20E"/>
    <text x="90" y="72" text-anchor="middle" font-family="Montserrat, Arial, sans-serif" font-size="26" font-weight="800" fill="#D7182A">21</text>
    <circle cx="60" cy="166" r="26" fill="#1A1A1A"/>
    <circle cx="60" cy="166" r="10" fill="#FFFFFF"/>
    <circle cx="214" cy="166" r="26" fill="#1A1A1A"/>
    <circle cx="214" cy="166" r="10" fill="#FFFFFF"/>
  </g>
  <!-- Repartidor con caja -->
  <g transform="translate(410 190)" stroke-linecap="round">
    <rect x="22" y="104" width="16" height="70" rx="8" fill="#1A1A1A"/>
    <rect x="44" y="104" width="16" height="70" rx="8" fill="#1A1A1A"/>
    <path d="M14 54 Q14 38 30 36 H52 Q68 38 68 54 V112 H14 Z" fill="#D7182A"/>
    <circle cx="41" cy="18" r="18" fill="#F2C9A0"/>
    <path d="M22 12 Q24 -4 41 -4 Q58 -4 60 12 Z" fill="#FFFFFF"/>
    <rect x="22" y="58" width="46" height="36" rx="4" fill="#FFFFFF" stroke="#9E0F1C" stroke-width="3"/>
    <rect x="40" y="58" width="9" height="36" fill="#FFC20E"/>
  </g>
</svg>
